<?xml version="1.0" standalone="no"?>
<!DOCTYPE svg PUBLIC "-//W3C//DTD SVG 20010904//EN"
 "http://www.w3.org/TR/2001/REC-SVG-20010904/DTD/svg10.dtd">
<svg version="1.0" xmlns="http://www.w3.org/2000/svg"
 width="336.000000pt" height="332.000000pt" viewBox="0 0 336.000000 332.000000"
 preserveAspectRatio="xMidYMid meet">

<g transform="translate(0.000000,332.000000) scale(0.100000,-0.100000)"
fill="#000000" stroke="none">
<path d="M810 2504 c-122 -21 -154 -30 -217 -59 -186 -86 -284 -263 -254 -462
22 -148 108 -255 265 -332 45 -22 157 -65 250 -95 204 -68 289 -111 355 -180
56 -60 71 -101 71 -196 0 -83 -22 -131 -87 -191 -58 -54 -133 -85 -246 -102
-65 -9 -95 -8 -173 5 -142 24 -243 76 -362 187 -18 17 -44 34 -58 37 -50 13
-103 -50 -85 -99 11 -29 101 -112 175 -161 130 -86 245 -119 421 -119 201 0
345 51 455 162 81 81 113 152 118 264 8 159 -29 258 -128 351 -77 71 -165 115
-364 181 -215 71 -307 115 -373 177 -65 63 -88 122 -80 214 9 117 83 200 217
244 191 63 413 18 555 -112 63 -57 92 -63 131 -28 31 30 31 64 -1 111 -79 113
-261 193 -462 203 -54 2 -109 3 -123 0z"/>
<path d="M2345 2484 c-299 -66 -548 -303 -636 -606 -27 -94 -37 -315 -19 -426
43 -268 219 -506 465 -630 242 -121 544 -115 806 16 112 56 138 86 119 132
-25 60 -66 64 -153 16 -347 -192 -761 -108 -962 194 -95 143 -130 281 -122
479 6 145 25 220 90 345 48 93 151 203 239 254 227 134 545 128 769 -14 74
-46 139 -24 139 49 0 29 -6 41 -33 61 -45 34 -188 100 -262 121 -87 24 -347
30 -440 9z"/>
</g>
</svg>
